<svg width="241" height="92" viewBox="0 0 241 92" fill="none" xmlns="http://www.w3.org/2000/svg">
<path d="M22.895 46.0361L23.105 45.5348C24.8546 44.135 26.5867 42.7189 28.3014 41.2871C30.016 39.8553 31.7715 38.4869 33.5678 37.1826L33.4978 37.2303C33.7661 36.9759 34.0373 36.7732 34.3113 36.6219C34.5855 36.4705 34.8742 36.3953 35.1774 36.3953C35.364 36.3953 35.5915 36.4309 35.8598 36.5025C36.1281 36.5741 36.2855 36.7849 36.3322 37.1348C36.2855 37.2938 36.0348 37.596 35.5798 38.0415C35.125 38.4869 34.5621 39.0202 33.8915 39.6404C33.2208 40.2611 32.4859 40.9016 31.6869 41.5613C30.8879 42.2216 30.1239 42.8621 29.3949 43.4823C28.6659 44.103 28.0185 44.652 27.4528 45.129C26.8871 45.6064 26.4993 45.9244 26.2893 46.0838C26.4993 46.3063 26.8871 46.704 27.4528 47.2769C28.0185 47.8494 28.6484 48.5015 29.3424 49.2334C30.0364 49.9653 30.7596 50.7409 31.5119 51.5602C32.2643 52.3795 32.9612 53.1469 33.6028 53.8631C34.2443 54.5787 34.7809 55.2111 35.2124 55.7602C35.644 56.3092 35.8948 56.6866 35.9648 56.8938C35.9181 57.355 35.6994 57.6415 35.3086 57.7527C34.9179 57.864 34.5884 57.9198 34.3201 57.9198C34.0519 57.9198 33.6319 57.6811 33.0604 57.2037C32.4888 56.7267 31.8385 56.1218 31.1095 55.3904C30.3805 54.6585 29.6165 53.8433 28.8175 52.9443C28.0185 52.0453 27.2429 51.1742 26.4905 50.331C25.7382 49.4879 25.0646 48.7245 24.4697 48.0403C23.8748 47.3562 23.4199 46.8472 23.105 46.513L22.895 46.0361ZM39.8432 27.1126C39.8432 26.8576 39.9102 26.6469 40.0444 26.4798C40.1785 26.3132 40.336 26.1816 40.5168 26.0861C40.6976 25.9906 40.8959 25.9271 41.1117 25.8951C41.3275 25.8637 41.517 25.8474 41.6803 25.8474C42.0186 25.8474 42.3772 25.9114 42.7563 26.0384C43.1354 26.1659 43.4183 26.4442 43.6049 26.8739C43.9432 27.653 44.191 28.58 44.3485 29.6537C44.506 30.7275 44.6547 31.7575 44.7946 32.7439C45.0046 34.1122 45.2729 35.544 45.5995 37.0394C45.9261 38.5347 46.2673 40.0579 46.623 41.6091C46.9788 43.1603 47.3433 44.6835 47.7165 46.1788C48.0898 47.6746 48.4164 49.0745 48.6963 50.3788C49.0346 48.4538 49.3466 46.4815 49.6324 44.461C49.9182 42.4405 50.1923 40.4201 50.4547 38.3996C50.7171 36.3791 50.9913 34.3591 51.277 32.3386C51.5628 30.3181 51.8748 28.3372 52.2131 26.3965C52.2831 25.9353 52.3356 25.3542 52.3706 24.6543C52.4056 23.9544 52.4785 23.2784 52.5893 22.6262C52.7001 21.974 52.8605 21.4133 53.0704 20.944C53.2803 20.4747 53.6011 20.24 54.0327 20.24C54.4876 20.24 54.7938 20.4107 54.9513 20.753C55.1087 21.0948 55.1875 21.5921 55.1875 22.2442C55.0708 24.0418 54.8813 25.8235 54.6188 27.5896C54.3564 29.3556 54.1144 31.1216 53.8927 32.8871C53.5778 35.0666 53.2367 37.2501 52.8692 39.4377C52.5018 41.6253 52.1577 43.8165 51.8369 46.0122C51.5162 48.2074 51.242 50.4067 51.0146 52.6101C50.7871 54.8134 50.6501 57.0208 50.6034 59.2323C50.6267 59.3278 50.6617 59.439 50.7084 59.5665C50.7551 59.6935 50.7784 59.789 50.7784 59.8525C50.7784 60.0434 50.7143 60.2227 50.5859 60.3898C50.4576 60.5564 50.2972 60.6997 50.1048 60.819C49.9123 60.9384 49.7024 61.0298 49.4749 61.0933C49.2474 61.1573 49.0346 61.1888 48.8363 61.1888C48.6497 61.1888 48.4368 61.173 48.1977 61.141C47.9585 61.1095 47.7195 61.0496 47.4803 60.9623C47.2412 60.8749 47.0312 60.7596 46.8504 60.6164C46.6696 60.4731 46.556 60.2903 46.5093 60.0673C46.3227 59.3196 46.1506 58.5918 45.9931 57.8838C45.8357 57.1762 45.6869 56.4484 45.547 55.7002C44.8821 52.4394 44.1852 49.2375 43.4562 46.0955C42.7272 42.9535 42.0536 39.7598 41.4354 36.5147C41.1437 35.0509 40.9251 33.615 40.7793 32.207C40.6335 30.7991 40.3972 29.4109 40.0706 28.0431C40.1173 28.1701 40.1406 28.2737 40.1406 28.3535C40.094 28.1305 40.0473 27.9197 40.0006 27.7211C39.954 27.522 39.9015 27.3031 39.8432 27.0649C39.8432 27.1284 39.849 27.168 39.8607 27.1837C39.849 27.168 39.8432 27.1441 39.8432 27.1126ZM58.8034 56.5357C58.7918 56.0583 58.7859 55.5814 58.7859 55.1039C58.7859 53.6086 58.8443 52.1052 58.9609 50.5936C59.1009 48.5894 59.1942 46.6166 59.2409 44.6759C59.2875 42.4009 59.3575 40.0381 59.4508 37.5884C59.5091 36.2521 59.5383 34.9315 59.5383 33.6272C59.5383 32.561 59.5208 31.5031 59.4858 30.4532C59.6025 30.0875 59.757 29.8406 59.9495 29.7137C60.1419 29.5862 60.3839 29.5227 60.6756 29.5227C60.8155 29.5227 60.9642 29.5384 61.1217 29.5704C61.2792 29.6019 61.4162 29.6817 61.5329 29.8092C61.6961 29.8406 61.8973 29.8726 62.1365 29.9041C62.3756 29.9361 62.5593 30.0316 62.6876 30.1906C62.7343 30.2861 62.8538 30.6122 63.0463 31.1694C63.2388 31.726 63.4662 32.4021 63.7286 33.1975C63.9911 33.9929 64.2652 34.8558 64.551 35.7868C64.8367 36.7173 65.1109 37.6001 65.3733 38.4356C65.6358 39.2706 65.8632 40.0066 66.0556 40.643C66.2481 41.2789 66.3677 41.6766 66.4143 41.8361C67.5108 39.1315 68.5842 36.3516 69.6334 33.4956C70.6833 30.6401 71.8322 27.9476 73.0802 25.4182C73.1973 25.1952 73.398 25.0322 73.6844 24.9291C73.9701 24.8255 74.2063 24.7737 74.3923 24.7737C74.8942 24.7737 75.2589 24.9367 75.4864 25.2628C75.7139 25.5889 75.8624 26.0069 75.932 26.5158C75.9789 26.8338 76.0083 27.1761 76.0197 27.5418C76.0317 27.7328 76.0257 27.9319 76.0023 28.1386C75.9555 28.7273 75.932 29.284 75.932 29.8092C75.932 33.5154 75.839 37.1948 75.6523 40.8457C75.4656 44.4966 75.2963 48.1836 75.1451 51.9061C75.1217 52.67 75.1103 53.4654 75.1103 54.2923C75.1103 55.1197 75.1217 55.9791 75.1451 56.87C75.1565 57.1879 75.1625 57.4983 75.1625 57.8005C75.1625 59.2003 75.0749 60.5051 74.9002 61.714C74.7369 62.0797 74.4686 62.3108 74.0952 62.4063C73.7219 62.5012 73.4074 62.549 73.1504 62.549C72.6024 62.549 72.0771 62.3743 71.5759 62.0243L71.3832 61.714L71.3136 61.332C71.3136 61.332 71.3016 61.205 71.2782 60.9506C71.2782 58.6436 71.3397 56.3209 71.4622 53.9825C71.5846 51.6435 71.7218 49.3091 71.873 46.9783C72.0249 44.648 72.1855 42.3212 72.3541 39.9985C72.5234 37.6758 72.6666 35.3531 72.7831 33.0304C72.0945 34.5897 71.4267 36.1764 70.7797 37.7911C70.1326 39.4057 69.523 41.0483 68.9516 42.7189C68.7414 43.3711 68.54 44.071 68.3477 44.8186C68.1552 45.5668 67.9248 46.2347 67.6566 46.8234C67.5166 47.1098 67.2804 47.2845 66.9479 47.3485C66.6155 47.412 66.3268 47.444 66.0819 47.444C65.8486 47.444 65.6066 47.3882 65.3558 47.2769C65.105 47.1652 64.933 46.927 64.8397 46.5608C64.4081 44.7633 63.9473 43.0054 63.4574 41.2871C62.9676 39.5688 62.4718 37.8271 61.9703 36.0611C61.9703 37.2385 61.9877 38.7617 62.0227 40.6308C62.0577 42.5 62.0753 44.4372 62.0753 46.4414C62.0753 48.4462 62.0519 50.363 62.0053 52.1926C61.9586 54.0221 61.8478 55.4696 61.6728 56.5357C61.6262 56.9334 61.4366 57.1798 61.1042 57.2753C60.7718 57.3708 60.4831 57.4185 60.2381 57.4185C60.0515 57.4185 59.8736 57.4028 59.7045 57.3708C59.5353 57.3393 59.3691 57.2753 59.2059 57.1798L58.8034 56.5357ZM78.8662 49.4005C78.8662 49.0826 78.8923 48.661 78.9445 48.1358C78.9974 47.6106 79.0583 47.09 79.1285 46.573C79.1981 46.0559 79.2797 45.5744 79.3734 45.129C79.4664 44.6835 79.5775 44.397 79.706 44.2701C79.799 44.1426 79.9596 44.0156 80.1871 43.8881C80.4146 43.7611 80.6535 43.6692 80.9044 43.6138C81.1553 43.558 81.3882 43.5818 81.6043 43.6855C81.8198 43.7886 81.951 43.9993 81.9978 44.3178C81.8345 44.6043 81.686 45.0934 81.5515 45.7852C81.4176 46.4775 81.3153 47.2449 81.2457 48.0881C81.1875 48.8042 81.158 49.5438 81.158 50.3072V50.713C81.1694 51.6039 81.2283 52.4231 81.3327 53.1708C81.4377 53.9185 81.5983 54.5351 81.8138 55.0201C82.0299 55.5057 82.3304 55.748 82.7151 55.748C83.5315 55.748 84.2782 55.235 84.9547 54.209C85.6312 53.183 86.2321 51.93 86.7567 50.4504C87.282 48.9708 87.7424 47.3998 88.1392 45.7374C88.5353 44.075 88.8739 42.6234 89.1536 41.3826C89.2238 41.0169 89.3898 40.77 89.6528 40.643C89.9151 40.5155 90.1974 40.4719 90.5012 40.5115C90.8043 40.5511 91.0754 40.6506 91.3149 40.8096C91.5538 40.9691 91.6963 41.1601 91.7432 41.3826C91.5103 44.0552 91.3263 46.7279 91.1918 49.4005C91.058 52.0732 90.991 54.7616 90.991 57.4663C90.991 57.9914 91.0084 58.4724 91.0432 58.9103C91.0787 59.3476 91.0606 59.7214 90.991 60.0317C90.9208 60.3421 90.7662 60.5884 90.5273 60.7713C90.2884 60.9541 89.9064 61.0461 89.3811 61.0461C89.2647 61.0461 89.1161 61.0298 88.9348 60.9983C88.7541 60.9663 88.5674 60.9145 88.3754 60.8429C88.1827 60.7713 88.0194 60.6641 87.8856 60.5209C87.7511 60.3776 87.6842 60.2105 87.6842 60.0196C87.6842 58.8422 87.7163 57.6334 87.7805 56.3925C87.8447 55.1517 87.9351 53.9505 88.0515 52.7894C87.7363 53.4095 87.3897 54.0261 87.0103 54.6387C86.6316 55.2512 86.2147 55.8038 85.7597 56.297C85.3047 56.7902 84.8149 57.1839 84.2896 57.4784C83.765 57.7725 83.1989 57.9198 82.5927 57.9198C81.7295 57.9198 81.0503 57.6415 80.5545 57.0843C80.0586 56.5276 79.6852 55.8318 79.4343 54.9963C79.1841 54.1612 79.0261 53.2505 78.9619 52.2642C78.8983 51.2778 78.8662 50.3234 78.8662 49.4005ZM95.3244 61.1888L95.6918 60.5925C95.6449 57.9198 95.5927 55.2548 95.5345 52.5984C95.4756 49.9415 95.4469 47.3008 95.4469 44.6759C95.4469 41.4146 95.5894 38.2604 95.8751 35.2139C96.1608 32.1674 96.4439 29.0452 96.7242 25.8474C96.747 25.6569 96.8146 25.5015 96.925 25.3822C97.0361 25.2628 97.1732 25.1637 97.3365 25.084C97.4998 25.0043 97.6657 24.9489 97.835 24.9169C98.0043 24.8849 98.1589 24.8692 98.2987 24.8692C98.4854 24.8692 98.7183 24.9169 98.9986 25.0124C99.2784 25.1079 99.5581 25.3862 99.8384 25.8474C99.8384 26.0069 99.8471 26.1461 99.8645 26.2654C99.8819 26.3848 99.8906 26.5239 99.8906 26.6829C99.8906 27.8918 99.7715 29.1885 99.532 30.5726C99.2931 31.9566 99.1325 33.2848 99.0508 34.5577C98.9578 36.117 98.8936 37.66 98.8588 39.1873C98.8233 40.7141 98.8059 42.2653 98.8059 43.8404L98.8407 45.9406C99.0743 45.5429 99.4068 45.0335 99.8384 44.4133C100.27 43.7926 100.736 43.1923 101.238 42.6117C101.739 42.0307 102.241 41.5339 102.742 41.12C103.244 40.7065 103.699 40.4998 104.108 40.4998C104.726 40.4998 105.154 40.738 105.394 41.2154C105.633 41.6929 105.752 42.3212 105.752 43.1008C105.752 43.8165 105.639 44.5641 105.411 45.3438C105.184 46.1235 104.886 46.8828 104.518 47.6228C104.151 48.3624 103.734 49.0267 103.268 49.6154C102.801 50.2041 102.34 50.6414 101.885 50.9278C102.504 51.9777 103.137 52.9798 103.784 53.9347C104.431 54.8891 105.139 55.7881 105.91 56.6312V57.1798C105.886 57.3393 105.813 57.4581 105.691 57.5379C105.568 57.6176 105.434 57.6811 105.289 57.7289C105.143 57.7766 105 57.8122 104.86 57.836C104.72 57.8599 104.603 57.8721 104.51 57.8721C103.938 57.8721 103.387 57.6415 102.856 57.1798C102.326 56.7186 101.83 56.1538 101.369 55.4859C100.908 54.8175 100.474 54.1094 100.066 53.3618C99.6578 52.6141 99.2844 51.962 98.9458 51.4053C99.0161 53.2348 99.095 55.0603 99.182 56.8816C99.2697 58.703 99.3131 60.529 99.3131 62.3585C99.3131 62.581 99.2402 62.7679 99.095 62.9193C98.9491 63.0701 98.7798 63.1854 98.5871 63.2651C98.3951 63.3444 98.1997 63.4003 98.001 63.4322C97.8029 63.4637 97.6396 63.48 97.5111 63.48C96.8233 63.48 96.3361 63.3088 96.0504 62.967C95.7647 62.6247 95.5225 62.0319 95.3244 61.1888ZM98.911 49.9496C99.2027 49.9496 99.5494 49.7784 99.9522 49.4366C100.354 49.0943 100.771 48.6686 101.203 48.1597C101.634 47.6508 102.037 47.1139 102.41 46.5491C102.783 45.9843 103.084 45.4474 103.311 44.938C103.539 44.429 103.653 44.0197 103.653 43.7093C103.653 43.399 103.495 43.2598 103.18 43.2918C103.064 43.2918 102.824 43.5224 102.463 43.9836C102.101 44.4448 101.699 45.0096 101.256 45.678C100.812 46.3459 100.369 47.0697 99.9261 47.8494C99.4824 48.629 99.1445 49.3289 98.911 49.9496ZM108.773 49.4005C108.773 49.0826 108.8 48.661 108.852 48.1358C108.905 47.6106 108.966 47.09 109.036 46.573C109.105 46.0559 109.187 45.5744 109.281 45.129C109.374 44.6835 109.485 44.397 109.613 44.2701C109.706 44.1426 109.867 44.0156 110.094 43.8881C110.322 43.7611 110.561 43.6692 110.812 43.6138C111.062 43.558 111.295 43.5818 111.512 43.6855C111.727 43.7886 111.858 43.9993 111.905 44.3178C111.742 44.6043 111.593 45.0934 111.459 45.7852C111.325 46.4775 111.223 47.2449 111.153 48.0881C111.094 48.8042 111.065 49.5438 111.065 50.3072V50.713C111.077 51.6039 111.135 52.4231 111.24 53.1708C111.345 53.9185 111.506 54.5351 111.721 55.0201C111.937 55.5057 112.238 55.748 112.622 55.748C113.439 55.748 114.185 55.235 114.862 54.209C115.538 53.183 116.139 51.93 116.664 50.4504C117.189 48.9708 117.65 47.3998 118.046 45.7374C118.443 44.075 118.781 42.6234 119.061 41.3826C119.131 41.0169 119.297 40.77 119.559 40.643C119.822 40.5155 120.105 40.4719 120.408 40.5115C120.712 40.5511 120.983 40.6506 121.221 40.8096C121.461 40.9691 121.604 41.1601 121.65 41.3826C121.417 44.0552 121.234 46.7279 121.099 49.4005C120.965 52.0732 120.898 54.7616 120.898 57.4663C120.898 57.9914 120.916 58.4724 120.95 58.9103C120.985 59.3476 120.968 59.7214 120.898 60.0317C120.828 60.3421 120.673 60.5884 120.435 60.7713C120.195 60.9541 119.814 61.0461 119.288 61.0461C119.172 61.0461 119.023 61.0298 118.842 60.9983C118.661 60.9663 118.475 60.9145 118.283 60.8429C118.09 60.7713 117.927 60.6641 117.793 60.5209C117.658 60.3776 117.591 60.2105 117.591 60.0196C117.591 58.8422 117.624 57.6334 117.688 56.3925C117.752 55.1517 117.842 53.9505 117.959 52.7894C117.644 53.4095 117.297 54.0261 116.918 54.6387C116.539 55.2512 116.121 55.8038 115.667 56.297C115.212 56.7902 114.722 57.1839 114.197 57.4784C113.672 57.7725 113.106 57.9198 112.5 57.9198C111.637 57.9198 110.958 57.6415 110.462 57.0843C109.966 56.5276 109.592 55.8318 109.342 54.9963C109.091 54.1612 108.933 53.2505 108.869 52.2642C108.805 51.2778 108.773 50.3234 108.773 49.4005ZM125.249 51.6196V50.9278C125.249 50.3549 125.26 49.814 125.284 49.305C125.307 48.5894 125.319 48.0007 125.319 47.539C125.319 47.2845 125.331 46.9945 125.354 46.6685C125.378 46.3424 125.436 46.0838 125.529 45.8929C125.645 45.7334 125.782 45.5703 125.94 45.4037C126.098 45.2366 126.269 45.1528 126.456 45.1528C127.051 45.1528 127.517 45.2442 127.856 45.4276C128.194 45.6105 128.375 45.9883 128.398 46.5608L128.468 47.3008C128.678 46.6166 128.958 45.7694 129.308 44.7592C129.658 43.7489 130.064 42.7864 130.524 41.8717C130.985 40.9569 131.504 40.1773 132.081 39.5332C132.658 38.8887 133.268 38.5667 133.91 38.5667C134.505 38.5667 134.994 38.9486 135.379 39.712C135.764 40.4759 136.07 41.4501 136.298 42.6356C136.525 43.8206 136.686 45.1411 136.779 46.5968C136.872 48.0525 136.936 49.4803 136.972 50.8801C137.007 52.2799 137.03 53.5568 137.041 54.7103C137.053 55.8638 137.094 56.7343 137.164 57.323C137.211 57.8162 137.29 58.3373 137.4 58.8864C137.511 59.4349 137.567 59.9403 137.567 60.4015C137.567 60.529 137.499 60.6519 137.365 60.7713C137.231 60.8906 137.088 60.9902 136.936 61.0699C136.785 61.1492 136.63 61.2127 136.473 61.2604C136.315 61.3081 136.202 61.332 136.132 61.332C135.677 61.332 135.353 60.8668 135.16 59.9363C134.968 59.0058 134.849 57.8401 134.802 56.4403C134.756 55.0404 134.732 53.5248 134.732 51.8944C134.732 50.2635 134.691 48.7484 134.61 47.3485C134.528 45.9482 134.361 44.7831 134.11 43.8526C133.86 42.9215 133.461 42.4405 132.912 42.4085C132.411 42.4085 131.892 42.8499 131.355 43.7332C130.818 44.616 130.358 45.7892 129.973 47.2531C129.6 48.7164 129.343 50.3788 129.203 52.2403C129.156 52.829 129.133 53.4176 129.133 54.0063C129.133 55.2949 129.232 56.5835 129.431 57.8721C129.454 58.0946 129.387 58.2617 129.229 58.3729C129.072 58.4846 128.876 58.572 128.643 58.6355C128.41 58.6995 128.174 58.7391 127.934 58.7548C127.695 58.7711 127.512 58.7787 127.384 58.7787C126.929 58.7787 126.564 58.5603 126.29 58.1225C126.016 57.6852 125.803 57.1244 125.651 56.4403C125.5 55.7561 125.398 54.9886 125.345 54.1374C125.293 53.2861 125.26 52.447 125.249 51.6196ZM141.147 51.5008C141.147 50.4189 141.255 49.3767 141.471 48.3745C141.686 47.3724 142.01 46.4775 142.442 45.6897C142.874 44.9024 143.413 44.2741 144.061 43.8048C144.708 43.3355 145.457 43.1008 146.309 43.1008C146.834 43.1008 147.414 43.208 148.049 43.4229C148.685 43.6377 149.283 43.9557 149.843 44.3772C150.403 44.7988 150.869 45.3357 151.242 45.9883C151.616 46.6405 151.803 47.3882 151.803 48.2313C151.803 48.629 151.753 48.9312 151.654 49.1379C151.555 49.3447 151.354 49.4483 151.05 49.4483L150.858 49.4005C151.196 50.6414 151.487 51.9142 151.732 53.2185C151.977 54.5234 152.217 55.8277 152.45 57.1321C152.543 57.387 152.614 57.6136 152.66 57.8121C152.707 58.0112 152.73 58.2063 152.73 58.3968C152.73 58.6517 152.677 58.8625 152.572 59.0296C152.468 59.1962 152.331 59.3196 152.161 59.3994C151.992 59.4786 151.817 59.5345 151.637 59.5665C151.455 59.598 151.295 59.6142 151.155 59.6142C150.654 59.6142 150.278 59.4949 150.027 59.2562C149.776 59.0174 149.595 58.6914 149.484 58.2779C149.374 57.864 149.307 57.3987 149.283 56.8816C149.26 56.3646 149.213 55.8435 149.143 55.3188C149.003 55.9389 148.82 56.5439 148.592 57.1321C148.365 57.7207 148.096 58.25 147.787 58.7193C147.478 59.1886 147.113 59.5624 146.694 59.8408C146.273 60.1191 145.801 60.2583 145.276 60.2583C144.507 60.2583 143.859 59.9561 143.335 59.3516C142.809 58.7472 142.386 58.0031 142.066 57.1204C141.745 56.2376 141.512 55.2949 141.366 54.2923C141.22 53.2902 141.147 52.3597 141.147 51.5008ZM143.632 51.1666C143.632 51.7552 143.661 52.3754 143.719 53.0276C143.778 53.6802 143.874 54.3243 144.008 54.9607C144.142 55.5971 144.314 56.1975 144.524 56.7623C144.734 57.3271 144.997 57.8243 145.311 58.254C145.883 57.4109 146.306 56.3844 146.58 55.1756C146.854 53.9662 147.099 52.801 147.315 51.6796C147.531 50.5581 147.776 49.5956 148.049 48.7921C148.324 47.9885 148.747 47.5868 149.318 47.5868C149.679 47.5868 149.983 47.6746 150.228 47.8494C150.111 47.4517 149.919 47.0661 149.651 46.6923C149.382 46.3185 149.082 45.9762 148.749 45.6658C148.417 45.356 148.073 45.101 147.717 44.9024C147.361 44.7033 147.026 44.6043 146.711 44.6043C146.618 44.6043 146.51 44.6241 146.387 44.6637C146.265 44.7033 146.169 44.7074 146.099 44.6759C145.62 44.8664 145.227 45.1965 144.918 45.6658C144.609 46.1351 144.358 46.6883 144.166 47.3247C143.973 47.9606 143.836 48.6133 143.754 49.2812C143.672 49.9496 143.632 50.5779 143.632 51.1666ZM155.243 58.3968C155.243 58.3018 155.346 58.0747 155.55 57.7167C155.754 57.3591 155.987 56.969 156.25 56.5474C156.512 56.1259 156.763 55.7363 157.002 55.3782C157.241 55.0201 157.396 54.7697 157.465 54.6265C158.702 52.5745 159.894 50.359 161.043 47.9809C162.192 45.6023 163.33 43.1765 164.455 40.7025C165.581 38.2284 166.715 35.8026 167.859 33.424C169.001 31.0459 170.209 28.8304 171.48 26.7784C171.842 26.2217 172.201 25.7164 172.556 25.2628C172.912 24.8097 173.387 24.5827 173.982 24.5827C174.076 24.5827 174.207 24.5908 174.376 24.6066C174.545 24.6228 174.714 24.6624 174.883 24.7259C175.053 24.7899 175.195 24.8773 175.312 24.9885C175.429 25.0997 175.487 25.2592 175.487 25.466C175.487 25.5614 175.39 25.788 175.198 26.1461C175.006 26.5036 174.796 26.8937 174.568 27.3153C174.341 27.7369 174.122 28.1346 173.912 28.5084C173.702 28.8822 173.556 29.1326 173.475 29.2601C173.183 29.7853 172.778 30.6005 172.259 31.7062C171.74 32.8115 171.139 34.1082 170.457 35.5959C169.774 37.083 169.034 38.6901 168.235 40.416C167.436 42.1424 166.622 43.8683 165.794 45.5942C164.966 47.3206 164.152 48.9912 163.353 50.6058C162.554 52.2205 161.808 53.6599 161.114 54.9251C160.42 56.1899 159.81 57.2316 159.285 58.0509C158.76 58.8701 158.358 59.3278 158.078 59.4233C157.787 59.5188 157.459 59.5665 157.098 59.5665C156.982 59.5665 156.815 59.5502 156.6 59.5187C156.383 59.4867 156.177 59.4309 155.979 59.3516C155.78 59.2719 155.608 59.1566 155.462 59.0058C155.316 58.8544 155.243 58.6517 155.243 58.3968ZM178.158 37.1348C178.205 36.7691 178.359 36.5543 178.622 36.4908C178.884 36.4268 179.109 36.3953 179.296 36.3953C179.61 36.3953 179.904 36.4705 180.179 36.6219C180.453 36.7732 180.718 36.9759 180.975 37.2303L180.905 37.1826C182.701 38.4869 184.459 39.8553 186.18 41.2871C187.901 42.7189 189.63 44.135 191.368 45.5348L191.595 46.0361L191.368 46.513C191.053 46.8315 190.598 47.3364 190.003 48.0286C189.408 48.7204 188.734 49.4879 187.982 50.331C187.23 51.1742 186.454 52.0453 185.655 52.9443C184.856 53.8433 184.092 54.6585 183.363 55.3904C182.634 56.1218 181.984 56.7267 181.412 57.2037C180.841 57.6811 180.421 57.9198 180.153 57.9198C179.884 57.9198 179.554 57.8599 179.164 57.7405C178.773 57.6217 178.555 57.3393 178.508 56.8938C178.555 56.7029 178.8 56.329 179.243 55.7718C179.686 55.2152 180.231 54.5787 180.879 53.8631C181.526 53.1469 182.226 52.3795 182.978 51.5602C183.731 50.7409 184.451 49.9653 185.139 49.2334C185.827 48.5015 186.449 47.8494 187.003 47.2769C187.557 46.704 187.95 46.3063 188.183 46.0838C187.974 45.9244 187.586 45.6064 187.02 45.129C186.454 44.652 185.807 44.103 185.078 43.4823C184.349 42.8621 183.585 42.2216 182.786 41.5613C181.987 40.9016 181.255 40.2611 180.59 39.6404C179.925 39.0202 179.365 38.4869 178.91 38.0415C178.455 37.596 178.205 37.2938 178.158 37.1348Z" fill="#DF0F0F"/>
</svg>
